<svg width="198" height="174" viewBox="0 0 198 174" fill="none" xmlns="http://www.w3.org/2000/svg">
<g clip-path="url(#clip0_6_253)">
<g opacity="0.05">
<mask id="path-1-inside-1_6_253" fill="white">
<path d="M189.757 68.1901C189.587 67.8832 189.358 67.6131 189.083 67.3955C188.808 67.178 188.493 67.0174 188.155 66.923C180.529 64.7897 171.576 66.0989 163.594 70.5151C158.798 73.1238 154.659 76.7905 151.491 81.2372L151.427 80.9507C149.004 70.0165 149.004 65.8854 151.427 54.9512L153.243 46.7549C153.329 46.3682 153.327 45.9673 153.237 45.5816C153.147 45.1959 152.971 44.8354 152.724 44.5265C152.476 44.2177 152.162 43.9684 151.805 43.7972C151.447 43.6259 151.056 43.537 150.66 43.537H117.739C117.343 43.537 116.952 43.6259 116.594 43.7971C116.237 43.9684 115.923 44.2177 115.675 44.5265C115.427 44.8353 115.252 45.1959 115.162 45.5816C115.072 45.9673 115.07 46.3682 115.156 46.7549L116.972 54.9512C119.395 65.8854 119.395 70.0165 116.972 80.9507L115.156 89.147C115.146 89.1899 115.142 89.2331 115.135 89.2764C115.126 89.3256 115.116 89.3745 115.11 89.4243C115.105 89.474 115.104 89.5228 115.101 89.5721C115.099 89.6215 115.094 89.6702 115.094 89.7196C115.094 89.769 115.098 89.8179 115.101 89.867C115.104 89.9162 115.105 89.9656 115.11 90.0149C115.116 90.0643 115.126 90.1136 115.135 90.1628C115.142 90.2059 115.146 90.2491 115.156 90.2922L116.972 98.4885C119.395 109.423 119.395 113.553 116.972 124.488L115.615 130.611H92.0094L90.6525 124.488C88.2289 113.553 88.2289 109.423 90.6525 98.4885L92.4687 90.2922C92.4782 90.2493 92.4824 90.2061 92.4897 90.1628C92.4981 90.1136 92.5082 90.0647 92.5139 90.0149C92.5195 89.9652 92.5204 89.9163 92.5231 89.867C92.5258 89.8177 92.5303 89.769 92.5303 89.7196C92.5303 89.6702 92.5259 89.6213 92.5231 89.5721C92.5203 89.5229 92.5194 89.4735 92.5139 89.4243C92.5084 89.375 92.4981 89.3256 92.4897 89.2764C92.4824 89.2333 92.478 89.1901 92.4687 89.147L90.6525 80.9507C88.2292 70.0165 88.2292 65.8854 90.6525 54.9512L92.4687 46.7549C92.4782 46.712 92.4824 46.6688 92.4897 46.6255C92.4981 46.5763 92.5082 46.5274 92.5139 46.4777C92.5195 46.428 92.5204 46.3791 92.5231 46.3298C92.5258 46.2805 92.5303 46.2317 92.5303 46.1823C92.5303 46.133 92.5259 46.084 92.5231 46.0349C92.5203 45.9857 92.5194 45.9363 92.5139 45.887C92.5084 45.8377 92.4981 45.7883 92.4897 45.7391C92.4824 45.696 92.478 45.6528 92.4687 45.6097L90.6525 37.4135C88.2289 26.4792 88.2289 22.3485 90.6525 11.4142L92.4687 3.21788C92.5544 2.83122 92.5522 2.43027 92.4622 2.04458C92.3723 1.6589 92.1969 1.29834 91.949 0.989491C91.7011 0.680645 91.387 0.431398 91.0299 0.26014C90.6728 0.0888819 90.2818 -1.62024e-05 89.8858 2.21496e-09H56.9639C56.5679 -7.40146e-06 56.1769 0.0888961 55.8198 0.260158C55.4627 0.43142 55.1486 0.680669 54.9007 0.989513C54.6528 1.29836 54.4774 1.65892 54.3875 2.0446C54.2975 2.43027 54.2953 2.83123 54.381 3.21788L56.1972 11.4142C58.6205 22.3485 58.6205 26.4792 56.1972 37.4135L56.0958 37.8713C52.8767 33.0243 48.5199 29.0391 43.4058 26.2638C35.4237 21.8478 26.4712 20.5391 18.8451 22.6721C18.5073 22.7666 18.1917 22.9272 17.9166 23.1448C17.6414 23.3623 17.4124 23.6324 17.2426 23.9393C17.0728 24.2462 16.9658 24.5838 16.9277 24.9325C16.8897 25.2811 16.9213 25.6339 17.0208 25.9702C19.2671 33.5643 25.1333 40.4516 33.1155 44.8668C38.3187 47.8071 44.1796 49.387 50.1557 49.4603C51.7427 49.4574 53.3267 49.3234 54.8916 49.0598L56.197 54.9511C58.6201 65.8853 58.6201 70.0164 56.197 80.9506L54.3809 89.1469C54.3714 89.1898 54.3672 89.233 54.3598 89.2762C54.3514 89.3255 54.3413 89.3744 54.3357 89.4242C54.3301 89.4739 54.3292 89.5227 54.3264 89.572C54.3237 89.6213 54.3193 89.6701 54.3193 89.7195C54.3193 89.7688 54.3237 89.8177 54.3264 89.8669C54.3292 89.916 54.3302 89.9655 54.3357 90.0148C54.3413 90.0641 54.3514 90.1135 54.3598 90.1627C54.3672 90.2058 54.3716 90.249 54.3809 90.2921L56.197 98.4884C58.6204 109.423 58.6204 113.553 56.197 124.488L54.5648 131.854C40.8238 141.551 33.2739 154.39 33.2739 168.137C33.2739 182.483 41.455 195.794 56.3099 205.616C57.3604 206.298 58.1206 207.345 58.4431 208.555C58.7656 209.765 58.6275 211.051 58.0555 212.165L53.2082 221.488C52.9986 221.892 52.8964 222.342 52.9114 222.796C52.9265 223.251 53.0583 223.693 53.2942 224.082C53.5301 224.47 53.862 224.791 54.2581 225.014C54.6542 225.237 55.101 225.354 55.5555 225.354H152.501C152.955 225.354 153.402 225.237 153.798 225.014C154.194 224.791 154.526 224.47 154.762 224.082C154.998 223.693 155.13 223.251 155.145 222.796C155.16 222.342 155.058 221.892 154.848 221.488L150.001 212.165C149.429 211.051 149.291 209.765 149.614 208.555C149.936 207.345 150.696 206.297 151.747 205.616C166.602 195.794 174.783 182.483 174.783 168.136C174.783 154.221 167.044 141.237 152.981 131.499L151.427 124.487C149.004 113.553 149.004 109.422 151.427 98.4879L152.558 93.386C153.977 93.6005 155.41 93.7092 156.845 93.7113C162.821 93.6375 168.681 92.0576 173.884 89.1178C181.867 84.7023 187.733 77.8147 189.979 70.2209C190.079 69.8846 190.11 69.5318 190.072 69.1832C190.034 68.8345 189.927 68.497 189.757 68.1901ZM122.138 53.8063L121.035 48.8279H147.365L146.262 53.8063C143.684 65.4392 143.684 70.4625 146.262 82.0956L147.365 87.074H121.035L122.138 82.0956C124.715 70.4625 124.716 65.4392 122.138 53.8063ZM122.138 97.3432L121.035 92.3648H147.365L146.262 97.3432C143.684 108.976 143.684 113.999 146.262 125.632L147.365 130.61H121.035L122.138 125.632C124.715 113.999 124.716 108.976 122.138 97.3432ZM61.3633 97.3432L60.2602 92.3648H86.5901L85.4869 97.3432C82.9089 108.976 82.9089 113.999 85.4869 125.632L86.5901 130.61H60.2599L61.363 125.632C63.9409 113.999 63.9412 108.976 61.3633 97.3432ZM61.3633 53.8063L60.2602 48.8279H86.5901L85.4869 53.8063C82.9089 65.4392 82.9089 70.4625 85.4869 82.0956L86.5901 87.074H60.2599L61.363 82.0956C63.9409 70.4625 63.9412 65.4392 61.3633 53.8063ZM61.3633 10.2697L60.2602 5.29125H86.5901L85.4869 10.2697C82.9089 21.9023 82.9089 26.9258 85.4869 38.5585L86.5901 43.5369H60.2599L61.363 38.5585C63.9409 26.9258 63.9412 21.9023 61.3633 10.2697ZM35.677 40.2369C29.8908 37.0365 25.4359 32.3781 23.102 27.1804C28.7441 26.3926 35.0584 27.6931 40.8449 30.8938C46.6311 34.0939 51.086 38.7528 53.4199 43.9508C47.7761 44.7365 41.4626 43.4375 35.677 40.2369ZM169.492 168.136C169.492 180.649 162.153 192.392 148.829 201.203C146.685 202.603 145.139 204.75 144.488 207.226C143.837 209.703 144.129 212.332 145.307 214.606L148.144 220.063H59.9128L62.7501 214.606C63.9278 212.332 64.2196 209.703 63.5689 207.226C62.9182 204.75 61.3714 202.604 59.2282 201.203C45.9034 192.392 38.565 180.649 38.565 168.137C38.565 156.037 45.4607 144.615 58.0048 135.902H150.052C162.596 144.615 169.492 156.036 169.492 168.136ZM171.323 84.4883C165.537 87.6886 159.224 88.989 153.58 88.2016C155.914 83.0036 160.369 78.3453 166.155 75.1446C171.942 71.9439 178.254 70.6442 183.898 71.4312C181.565 76.629 177.109 81.2873 171.323 84.4883Z"/>
</mask>
<path d="M189.757 68.1901C189.587 67.8832 189.358 67.6131 189.083 67.3955C188.808 67.178 188.493 67.0174 188.155 66.923C180.529 64.7897 171.576 66.0989 163.594 70.5151C158.798 73.1238 154.659 76.7905 151.491 81.2372L151.427 80.9507C149.004 70.0165 149.004 65.8854 151.427 54.9512L153.243 46.7549C153.329 46.3682 153.327 45.9673 153.237 45.5816C153.147 45.1959 152.971 44.8354 152.724 44.5265C152.476 44.2177 152.162 43.9684 151.805 43.7972C151.447 43.6259 151.056 43.537 150.66 43.537H117.739C117.343 43.537 116.952 43.6259 116.594 43.7971C116.237 43.9684 115.923 44.2177 115.675 44.5265C115.427 44.8353 115.252 45.1959 115.162 45.5816C115.072 45.9673 115.07 46.3682 115.156 46.7549L116.972 54.9512C119.395 65.8854 119.395 70.0165 116.972 80.9507L115.156 89.147C115.146 89.1899 115.142 89.2331 115.135 89.2764C115.126 89.3256 115.116 89.3745 115.11 89.4243C115.105 89.474 115.104 89.5228 115.101 89.5721C115.099 89.6215 115.094 89.6702 115.094 89.7196C115.094 89.769 115.098 89.8179 115.101 89.867C115.104 89.9162 115.105 89.9656 115.11 90.0149C115.116 90.0643 115.126 90.1136 115.135 90.1628C115.142 90.2059 115.146 90.2491 115.156 90.2922L116.972 98.4885C119.395 109.423 119.395 113.553 116.972 124.488L115.615 130.611H92.0094L90.6525 124.488C88.2289 113.553 88.2289 109.423 90.6525 98.4885L92.4687 90.2922C92.4782 90.2493 92.4824 90.2061 92.4897 90.1628C92.4981 90.1136 92.5082 90.0647 92.5139 90.0149C92.5195 89.9652 92.5204 89.9163 92.5231 89.867C92.5258 89.8177 92.5303 89.769 92.5303 89.7196C92.5303 89.6702 92.5259 89.6213 92.5231 89.5721C92.5203 89.5229 92.5194 89.4735 92.5139 89.4243C92.5084 89.375 92.4981 89.3256 92.4897 89.2764C92.4824 89.2333 92.478 89.1901 92.4687 89.147L90.6525 80.9507C88.2292 70.0165 88.2292 65.8854 90.6525 54.9512L92.4687 46.7549C92.4782 46.712 92.4824 46.6688 92.4897 46.6255C92.4981 46.5763 92.5082 46.5274 92.5139 46.4777C92.5195 46.428 92.5204 46.3791 92.5231 46.3298C92.5258 46.2805 92.5303 46.2317 92.5303 46.1823C92.5303 46.133 92.5259 46.084 92.5231 46.0349C92.5203 45.9857 92.5194 45.9363 92.5139 45.887C92.5084 45.8377 92.4981 45.7883 92.4897 45.7391C92.4824 45.696 92.478 45.6528 92.4687 45.6097L90.6525 37.4135C88.2289 26.4792 88.2289 22.3485 90.6525 11.4142L92.4687 3.21788C92.5544 2.83122 92.5522 2.43027 92.4622 2.04458C92.3723 1.6589 92.1969 1.29834 91.949 0.989491C91.7011 0.680645 91.387 0.431398 91.0299 0.26014C90.6728 0.0888819 90.2818 -1.62024e-05 89.8858 2.21496e-09H56.9639C56.5679 -7.40146e-06 56.1769 0.0888961 55.8198 0.260158C55.4627 0.43142 55.1486 0.680669 54.9007 0.989513C54.6528 1.29836 54.4774 1.65892 54.3875 2.0446C54.2975 2.43027 54.2953 2.83123 54.381 3.21788L56.1972 11.4142C58.6205 22.3485 58.6205 26.4792 56.1972 37.4135L56.0958 37.8713C52.8767 33.0243 48.5199 29.0391 43.4058 26.2638C35.4237 21.8478 26.4712 20.5391 18.8451 22.6721C18.5073 22.7666 18.1917 22.9272 17.9166 23.1448C17.6414 23.3623 17.4124 23.6324 17.2426 23.9393C17.0728 24.2462 16.9658 24.5838 16.9277 24.9325C16.8897 25.2811 16.9213 25.6339 17.0208 25.9702C19.2671 33.5643 25.1333 40.4516 33.1155 44.8668C38.3187 47.8071 44.1796 49.387 50.1557 49.4603C51.7427 49.4574 53.3267 49.3234 54.8916 49.0598L56.197 54.9511C58.6201 65.8853 58.6201 70.0164 56.197 80.9506L54.3809 89.1469C54.3714 89.1898 54.3672 89.233 54.3598 89.2762C54.3514 89.3255 54.3413 89.3744 54.3357 89.4242C54.3301 89.4739 54.3292 89.5227 54.3264 89.572C54.3237 89.6213 54.3193 89.6701 54.3193 89.7195C54.3193 89.7688 54.3237 89.8177 54.3264 89.8669C54.3292 89.916 54.3302 89.9655 54.3357 90.0148C54.3413 90.0641 54.3514 90.1135 54.3598 90.1627C54.3672 90.2058 54.3716 90.249 54.3809 90.2921L56.197 98.4884C58.6204 109.423 58.6204 113.553 56.197 124.488L54.5648 131.854C40.8238 141.551 33.2739 154.39 33.2739 168.137C33.2739 182.483 41.455 195.794 56.3099 205.616C57.3604 206.298 58.1206 207.345 58.4431 208.555C58.7656 209.765 58.6275 211.051 58.0555 212.165L53.2082 221.488C52.9986 221.892 52.8964 222.342 52.9114 222.796C52.9265 223.251 53.0583 223.693 53.2942 224.082C53.5301 224.47 53.862 224.791 54.2581 225.014C54.6542 225.237 55.101 225.354 55.5555 225.354H152.501C152.955 225.354 153.402 225.237 153.798 225.014C154.194 224.791 154.526 224.47 154.762 224.082C154.998 223.693 155.13 223.251 155.145 222.796C155.16 222.342 155.058 221.892 154.848 221.488L150.001 212.165C149.429 211.051 149.291 209.765 149.614 208.555C149.936 207.345 150.696 206.297 151.747 205.616C166.602 195.794 174.783 182.483 174.783 168.136C174.783 154.221 167.044 141.237 152.981 131.499L151.427 124.487C149.004 113.553 149.004 109.422 151.427 98.4879L152.558 93.386C153.977 93.6005 155.41 93.7092 156.845 93.7113C162.821 93.6375 168.681 92.0576 173.884 89.1178C181.867 84.7023 187.733 77.8147 189.979 70.2209C190.079 69.8846 190.11 69.5318 190.072 69.1832C190.034 68.8345 189.927 68.497 189.757 68.1901ZM122.138 53.8063L121.035 48.8279H147.365L146.262 53.8063C143.684 65.4392 143.684 70.4625 146.262 82.0956L147.365 87.074H121.035L122.138 82.0956C124.715 70.4625 124.716 65.4392 122.138 53.8063ZM122.138 97.3432L121.035 92.3648H147.365L146.262 97.3432C143.684 108.976 143.684 113.999 146.262 125.632L147.365 130.61H121.035L122.138 125.632C124.715 113.999 124.716 108.976 122.138 97.3432ZM61.3633 97.3432L60.2602 92.3648H86.5901L85.4869 97.3432C82.9089 108.976 82.9089 113.999 85.4869 125.632L86.5901 130.61H60.2599L61.363 125.632C63.9409 113.999 63.9412 108.976 61.3633 97.3432ZM61.3633 53.8063L60.2602 48.8279H86.5901L85.4869 53.8063C82.9089 65.4392 82.9089 70.4625 85.4869 82.0956L86.5901 87.074H60.2599L61.363 82.0956C63.9409 70.4625 63.9412 65.4392 61.3633 53.8063ZM61.3633 10.2697L60.2602 5.29125H86.5901L85.4869 10.2697C82.9089 21.9023 82.9089 26.9258 85.4869 38.5585L86.5901 43.5369H60.2599L61.363 38.5585C63.9409 26.9258 63.9412 21.9023 61.3633 10.2697ZM35.677 40.2369C29.8908 37.0365 25.4359 32.3781 23.102 27.1804C28.7441 26.3926 35.0584 27.6931 40.8449 30.8938C46.6311 34.0939 51.086 38.7528 53.4199 43.9508C47.7761 44.7365 41.4626 43.4375 35.677 40.2369ZM169.492 168.136C169.492 180.649 162.153 192.392 148.829 201.203C146.685 202.603 145.139 204.75 144.488 207.226C143.837 209.703 144.129 212.332 145.307 214.606L148.144 220.063H59.9128L62.7501 214.606C63.9278 212.332 64.2196 209.703 63.5689 207.226C62.9182 204.75 61.3714 202.604 59.2282 201.203C45.9034 192.392 38.565 180.649 38.565 168.137C38.565 156.037 45.4607 144.615 58.0048 135.902H150.052C162.596 144.615 169.492 156.036 169.492 168.136ZM171.323 84.4883C165.537 87.6886 159.224 88.989 153.58 88.2016C155.914 83.0036 160.369 78.3453 166.155 75.1446C171.942 71.9439 178.254 70.6442 183.898 71.4312C181.565 76.629 177.109 81.2873 171.323 84.4883Z" fill="white" stroke="#F8F8F8" stroke-width="3" mask="url(#path-1-inside-1_6_253)"/>
</g>
</g>
<defs>
<clipPath id="clip0_6_253">
<rect width="198" height="174" fill="white"/>
</clipPath>
</defs>
</svg>
