<svg width="57" height="57" viewBox="0 0 57 57" fill="none" xmlns="http://www.w3.org/2000/svg">
<circle cx="28.5" cy="28.5" r="28" stroke="white"/>
<path d="M32.9371 14.77C30.6627 14.77 28.8036 15.4951 27.5131 16.8179C26.2231 18.1403 25.5167 20.0443 25.5167 22.3733V25.3446H21.9C21.6834 25.3446 21.4757 25.4307 21.3225 25.5838C21.1694 25.737 21.0833 25.9447 21.0833 26.1613V31.2946C21.0833 31.5112 21.1694 31.719 21.3225 31.8721C21.4757 32.0253 21.6834 32.1113 21.9 32.1113H25.5167V42.2546C25.5167 42.4712 25.6027 42.679 25.7559 42.8321C25.909 42.9853 26.1167 43.0713 26.3333 43.0713H31.6373C31.8539 43.0713 32.0616 42.9853 32.2148 42.8321C32.368 42.679 32.454 42.4712 32.454 42.2546V32.1113H36.0586C36.0586 32.1113 36.0586 32.1113 36.0587 32.1113C36.2569 32.1114 36.4484 32.0393 36.5975 31.9086C36.7465 31.7779 36.843 31.5974 36.8687 31.4008L36.8688 31.4005L37.5314 26.2675C37.5465 26.1522 37.5368 26.0351 37.503 25.9238C37.4692 25.8126 37.4121 25.7099 37.3354 25.6225C37.2587 25.5352 37.1642 25.4652 37.0583 25.4173C36.9524 25.3694 36.8376 25.3446 36.7213 25.3446C36.7213 25.3446 36.7213 25.3446 36.7213 25.3446H32.454V22.8826C32.454 22.2329 32.523 21.8308 32.7476 21.5814C32.9687 21.3359 33.3785 21.1993 34.1813 21.1993H36.9C37.1166 21.1993 37.3243 21.1133 37.4775 20.9601C37.6306 20.807 37.7167 20.5992 37.7167 20.3826V15.7894C37.7167 15.7894 37.7167 15.7893 37.7167 15.7893C37.7167 15.5911 37.6447 15.3996 37.514 15.2505C37.3833 15.1014 37.2028 15.005 37.0062 14.9792L37.0062 14.9792L37.0025 14.9788C35.6521 14.8356 34.295 14.7658 32.9371 14.77ZM32.9371 14.77C32.9372 14.77 32.9373 14.77 32.9373 14.77V14.92L32.9369 14.77C32.937 14.77 32.937 14.77 32.9371 14.77ZM31.636 26.9793H31.6357C31.4194 26.9789 31.2121 26.8926 31.0593 26.7395C30.9065 26.5864 30.8207 26.3789 30.8207 26.1626V22.8826C30.8207 22.1967 30.9034 21.3646 31.3747 20.7028C31.8534 20.0306 32.7086 19.566 34.1799 19.566L31.636 26.9793ZM31.636 26.9793H35.7933L35.3402 30.4793H31.6373C31.4207 30.4793 31.213 30.5653 31.0599 30.7185C30.9067 30.8717 30.8207 31.0794 30.8207 31.296V41.4366H27.15V31.296C27.15 31.0794 27.064 30.8717 26.9108 30.7185C26.7576 30.5653 26.5499 30.4793 26.3333 30.4793H22.718V26.9793H26.3333C26.5499 26.9793 26.7576 26.8933 26.9108 26.7401C27.064 26.587 27.15 26.3792 27.15 26.1626V22.3733C27.15 20.4859 27.6963 18.9971 28.6823 17.9808C29.6678 16.965 31.1099 16.4033 32.9373 16.4033C34.1972 16.4033 35.3422 16.4679 36.0833 16.5285V19.5647L34.18 19.566L31.636 26.9793Z" fill="white" stroke="white" stroke-width="0.3"/>
</svg>
