<svg width="136" height="36" viewBox="0 0 136 36" fill="none" xmlns="http://www.w3.org/2000/svg">
<path fill-rule="evenodd" clip-rule="evenodd" d="M13.7699 35.2235C22.8944 32.8025 26.2628 28.979 24.5399 21.7427L19.2148 26.735C19.3267 26.9877 19.3888 27.2673 19.3888 27.5615C19.3888 28.6899 18.4741 29.6047 17.3456 29.6047C16.2172 29.6047 15.3025 28.6899 15.3025 27.5615C15.3025 26.4331 16.2172 25.5183 17.3456 25.5183C17.6454 25.5183 17.9301 25.5829 18.1866 25.6989L24.0085 19.8769C23.0596 16.9805 21.4186 13.5923 19.1195 9.61L18.4115 10.1134C18.4771 10.3403 18.4976 10.5843 18.4637 10.8334C18.3337 11.7894 17.4534 12.4589 16.4974 12.329C15.5415 12.199 14.8719 11.3187 15.0019 10.3627C15.1318 9.40674 16.0122 8.73716 16.9681 8.86714C17.2222 8.90168 17.456 8.98922 17.66 9.11708L18.471 8.50023C17.1094 6.19736 15.5403 3.70336 13.7699 1V20.3368L17.6739 16.7796C17.5656 16.5254 17.5075 16.245 17.5116 15.951C17.5277 14.8227 18.4553 13.921 19.5836 13.937C20.7119 13.953 21.6136 14.8807 21.5976 16.009C21.5816 17.1373 20.6539 18.039 19.5256 18.023C19.2258 18.0187 18.9419 17.9501 18.687 17.8304L13.7699 22.6098V35.2235ZM18.3672 27.5615C18.3672 28.1257 17.9099 28.5831 17.3456 28.5831C16.7814 28.5831 16.3241 28.1257 16.3241 27.5615C16.3241 26.9973 16.7814 26.5399 17.3456 26.5399C17.9099 26.5399 18.3672 26.9973 18.3672 27.5615ZM18.5331 15.9655C18.5411 15.4013 19.005 14.9505 19.5691 14.9585C20.1333 14.9665 20.5841 15.4303 20.5761 15.9945C20.5681 16.5586 20.1043 17.0095 19.5401 17.0015C18.976 16.9935 18.5251 16.5296 18.5331 15.9655ZM17.5982 10.7157C17.5332 11.1937 17.0931 11.5285 16.6151 11.4635C16.1371 11.3985 15.8023 10.9583 15.8673 10.4804C15.9323 10.0024 16.3725 9.6676 16.8504 9.73259C17.3284 9.79758 17.6632 10.2377 17.5982 10.7157ZM4.78714 13.3766C5.53261 11.9332 6.38569 10.3998 7.34419 8.76973L12.2041 13.4433V21.2219L4.78714 13.3766ZM3.78591 15.3985C3.1627 16.7183 2.64207 17.9559 2.22602 19.1177L12.2041 29.672V24.3029L3.78591 15.3985ZM12.2041 35.2236C2.95312 32.7691 -0.38111 28.8728 1.50871 21.4399L12.2041 32.753V35.2236ZM12.2041 10.6087L8.42083 6.97043C9.55666 5.10269 10.8187 3.1155 12.2041 1.00011V10.6087Z" fill="url(#paint0_linear_6_354)"/>
<path d="M24.5399 21.7427L24.7883 21.6835L24.6863 21.2553L24.3652 21.5564L24.5399 21.7427ZM13.7699 35.2235H13.5145V35.5555L13.8354 35.4703L13.7699 35.2235ZM19.2148 26.735L19.0401 26.5486L18.9078 26.6726L18.9812 26.8384L19.2148 26.735ZM18.1866 25.6989L18.0814 25.9316L18.2423 26.0044L18.3672 25.8795L18.1866 25.6989ZM24.0085 19.8769L24.1891 20.0575L24.3001 19.9466L24.2512 19.7974L24.0085 19.8769ZM19.1195 9.61L19.3407 9.48231L19.2003 9.23918L18.9715 9.40184L19.1195 9.61ZM18.4115 10.1134L18.2635 9.9052L18.1158 10.0102L18.1661 10.1843L18.4115 10.1134ZM18.4637 10.8334L18.7168 10.8678L18.4637 10.8334ZM16.9681 8.86714L17.0025 8.61407L16.9681 8.86714ZM17.66 9.11708L17.5243 9.33347L17.674 9.4273L17.8146 9.32036L17.66 9.11708ZM18.471 8.50023L18.6256 8.70351L18.8065 8.5659L18.6908 8.37025L18.471 8.50023ZM13.7699 1L13.9836 0.860074L13.5145 0.143855V1H13.7699ZM13.7699 20.3368H13.5145V20.9151L13.9419 20.5256L13.7699 20.3368ZM17.6739 16.7796L17.8459 16.9684L17.9799 16.8463L17.9088 16.6796L17.6739 16.7796ZM17.5116 15.951L17.767 15.9546V15.9546L17.5116 15.951ZM19.5836 13.937L19.58 14.1924H19.58L19.5836 13.937ZM21.5976 16.009L21.853 16.0126L21.5976 16.009ZM19.5256 18.023L19.522 18.2783L19.5256 18.023ZM18.687 17.8304L18.7956 17.5992L18.6357 17.5241L18.509 17.6472L18.687 17.8304ZM13.7699 22.6098L13.5919 22.4267L13.5145 22.5019V22.6098H13.7699ZM19.5691 14.9585L19.5655 15.2138L19.5691 14.9585ZM18.5331 15.9655L18.2778 15.9618L18.5331 15.9655ZM20.5761 15.9945L20.3207 15.9908L20.5761 15.9945ZM19.5401 17.0015L19.5438 16.7461H19.5438L19.5401 17.0015ZM16.6151 11.4635L16.5807 11.7166H16.5807L16.6151 11.4635ZM17.5982 10.7157L17.8513 10.7501L17.5982 10.7157ZM15.8673 10.4804L15.6142 10.446H15.6142L15.8673 10.4804ZM16.8504 9.73259L16.8849 9.47952H16.8849L16.8504 9.73259ZM7.34419 8.76973L7.52122 8.58564L7.28802 8.36138L7.12403 8.64027L7.34419 8.76973ZM4.78714 13.3766L4.56022 13.2594L4.47707 13.4204L4.60155 13.5521L4.78714 13.3766ZM12.2041 13.4433H12.4595V13.3346L12.3811 13.2593L12.2041 13.4433ZM12.2041 21.2219L12.0185 21.3974L12.4595 21.8638V21.2219H12.2041ZM2.22602 19.1177L1.98558 19.0316L1.93271 19.1792L2.04043 19.2931L2.22602 19.1177ZM3.78591 15.3985L3.9715 15.2231L3.71463 14.9514L3.55497 15.2895L3.78591 15.3985ZM12.2041 29.672L12.0185 29.8475L12.4595 30.3139V29.672H12.2041ZM12.2041 24.3029H12.4595V24.2013L12.3897 24.1275L12.2041 24.3029ZM1.50871 21.4399L1.6943 21.2645L1.37553 20.9273L1.26119 21.377L1.50871 21.4399ZM12.2041 35.2236L12.1386 35.4704L12.4595 35.5556V35.2236H12.2041ZM12.2041 32.753H12.4595V32.6514L12.3897 32.5776L12.2041 32.753ZM8.42083 6.97043L8.20261 6.83772L8.09625 7.01262L8.2438 7.15451L8.42083 6.97043ZM12.2041 10.6087L12.0271 10.7928L12.4595 11.2086V10.6087H12.2041ZM12.2041 1.00011H12.4595V0.143965L11.9904 0.860184L12.2041 1.00011ZM24.2914 21.8018C25.1414 25.3719 24.7254 28.046 23.0249 30.1272C21.3101 32.2261 18.2527 33.7699 13.7044 34.9766L13.8354 35.4703C18.4116 34.2562 21.6007 32.6777 23.4205 30.4504C25.2546 28.2056 25.6612 25.3498 24.7883 21.6835L24.2914 21.8018ZM19.3894 26.9213L24.7145 21.929L24.3652 21.5564L19.0401 26.5486L19.3894 26.9213ZM19.6442 27.5615C19.6442 27.231 19.5743 26.9162 19.4483 26.6315L18.9812 26.8384C19.079 27.0592 19.1334 27.3036 19.1334 27.5615H19.6442ZM17.3456 29.8601C18.6151 29.8601 19.6442 28.831 19.6442 27.5615H19.1334C19.1334 28.5489 18.333 29.3493 17.3456 29.3493V29.8601ZM15.0471 27.5615C15.0471 28.831 16.0762 29.8601 17.3456 29.8601V29.3493C16.3583 29.3493 15.5579 28.5489 15.5579 27.5615H15.0471ZM17.3456 25.2629C16.0762 25.2629 15.0471 26.292 15.0471 27.5615H15.5579C15.5579 26.5741 16.3583 25.7737 17.3456 25.7737V25.2629ZM18.2919 25.4662C18.003 25.3355 17.6824 25.2629 17.3456 25.2629V25.7737C17.6084 25.7737 17.8573 25.8302 18.0814 25.9316L18.2919 25.4662ZM23.8279 19.6963L18.006 25.5183L18.3672 25.8795L24.1891 20.0575L23.8279 19.6963ZM18.8983 9.7377C21.1936 13.7134 22.8248 17.0841 23.7658 19.9565L24.2512 19.7974C23.2943 16.8768 21.6436 13.4712 19.3407 9.48231L18.8983 9.7377ZM18.5595 10.3215L19.2675 9.81816L18.9715 9.40184L18.2635 9.9052L18.5595 10.3215ZM18.7168 10.8678C18.7555 10.5827 18.7322 10.3028 18.6568 10.0424L18.1661 10.1843C18.2221 10.3777 18.2396 10.5858 18.2106 10.799L18.7168 10.8678ZM16.463 12.582C17.5587 12.731 18.5678 11.9635 18.7168 10.8678L18.2106 10.799C18.0996 11.6152 17.348 12.1869 16.5318 12.0759L16.463 12.582ZM14.7488 10.3283C14.5998 11.424 15.3673 12.433 16.463 12.582L16.5318 12.0759C15.7156 11.9649 15.144 11.2133 15.2549 10.3971L14.7488 10.3283ZM17.0025 8.61407C15.9068 8.46508 14.8978 9.23256 14.7488 10.3283L15.2549 10.3971C15.3659 9.58092 16.1175 9.00923 16.9337 9.12021L17.0025 8.61407ZM17.7956 8.90069C17.5615 8.75392 17.2933 8.6536 17.0025 8.61407L16.9337 9.12021C17.1511 9.14976 17.3505 9.22451 17.5243 9.33347L17.7956 8.90069ZM18.3163 8.29695L17.5053 8.9138L17.8146 9.32036L18.6256 8.70351L18.3163 8.29695ZM13.5562 1.13993C15.3252 3.84107 16.8921 6.33163 18.2511 8.63022L18.6908 8.37025C17.3267 6.06309 15.7555 3.56566 13.9836 0.860074L13.5562 1.13993ZM14.0253 20.3368V1H13.5145V20.3368H14.0253ZM17.5018 16.5908L13.5979 20.148L13.9419 20.5256L17.8459 16.9684L17.5018 16.5908ZM17.2563 15.9473C17.2516 16.2777 17.317 16.5933 17.4389 16.8797L17.9088 16.6796C17.8143 16.4575 17.7634 16.2123 17.767 15.9546L17.2563 15.9473ZM19.5873 13.6816C18.3179 13.6636 17.2743 14.678 17.2563 15.9473L17.767 15.9546C17.781 14.9673 18.5927 14.1783 19.58 14.1924L19.5873 13.6816ZM21.853 16.0126C21.871 14.7432 20.8566 13.6996 19.5872 13.6816L19.58 14.1924C20.5673 14.2064 21.3563 15.0181 21.3422 16.0053L21.853 16.0126ZM19.522 18.2783C20.7914 18.2963 21.835 17.2819 21.853 16.0126L21.3422 16.0053C21.3282 16.9926 20.5165 17.7816 19.5293 17.7676L19.522 18.2783ZM18.5785 18.0615C18.8656 18.1964 19.1851 18.2735 19.522 18.2783L19.5293 17.7676C19.2664 17.7638 19.0183 17.7037 18.7956 17.5992L18.5785 18.0615ZM13.9479 22.793L18.865 18.0135L18.509 17.6472L13.5919 22.4267L13.9479 22.793ZM14.0253 35.2235V22.6098H13.5145V35.2235H14.0253ZM17.3456 28.8385C18.0509 28.8385 18.6226 28.2668 18.6226 27.5615H18.1118C18.1118 27.9847 17.7688 28.3277 17.3456 28.3277V28.8385ZM16.0687 27.5615C16.0687 28.2668 16.6404 28.8385 17.3456 28.8385V28.3277C16.9225 28.3277 16.5795 27.9847 16.5795 27.5615H16.0687ZM17.3456 26.2845C16.6404 26.2845 16.0687 26.8562 16.0687 27.5615H16.5795C16.5795 27.1384 16.9225 26.7953 17.3456 26.7953V26.2845ZM18.6226 27.5615C18.6226 26.8562 18.0509 26.2845 17.3456 26.2845V26.7953C17.7688 26.7953 18.1118 27.1384 18.1118 27.5615H18.6226ZM19.5728 14.7031C18.8676 14.6931 18.2878 15.2566 18.2778 15.9618L18.7885 15.9691C18.7945 15.546 19.1424 15.2078 19.5655 15.2138L19.5728 14.7031ZM20.8315 15.9981C20.8415 15.2929 20.2779 14.7131 19.5728 14.7031L19.5655 15.2138C19.9886 15.2199 20.3268 15.5677 20.3207 15.9908L20.8315 15.9981ZM19.5365 17.2568C20.2417 17.2668 20.8215 16.7033 20.8315 15.9981L20.3207 15.9908C20.3147 16.414 19.9669 16.7521 19.5438 16.7461L19.5365 17.2568ZM18.2778 15.9618C18.2678 16.667 18.8313 17.2468 19.5365 17.2568L19.5438 16.7461C19.1206 16.7401 18.7825 16.3922 18.7885 15.9691L18.2778 15.9618ZM16.5807 11.7166C17.1984 11.8006 17.7673 11.3679 17.8513 10.7501L17.3452 10.6813C17.2992 11.0195 16.9877 11.2564 16.6495 11.2104L16.5807 11.7166ZM15.6142 10.446C15.5303 11.0637 15.9629 11.6326 16.5807 11.7166L16.6495 11.2104C16.3113 11.1644 16.0744 10.853 16.1204 10.5148L15.6142 10.446ZM16.8849 9.47952C16.2671 9.39553 15.6982 9.82822 15.6142 10.446L16.1204 10.5148C16.1664 10.1766 16.4778 9.93968 16.816 9.98566L16.8849 9.47952ZM17.8513 10.7501C17.9353 10.1324 17.5026 9.56352 16.8849 9.47952L16.816 9.98566C17.1542 10.0317 17.3911 10.3431 17.3452 10.6813L17.8513 10.7501ZM7.12403 8.64027C6.16367 10.2735 5.30825 11.8111 4.56022 13.2594L5.01406 13.4938C5.75697 12.0554 6.6077 10.5261 7.56435 8.89918L7.12403 8.64027ZM12.3811 13.2593L7.52122 8.58564L7.16716 8.95382L12.0271 13.6274L12.3811 13.2593ZM12.4595 21.2219V13.4433H11.9487V21.2219H12.4595ZM4.60155 13.5521L12.0185 21.3974L12.3897 21.0465L4.97273 13.2011L4.60155 13.5521ZM2.46646 19.2038C2.87919 18.0513 3.39644 16.8214 4.01686 15.5076L3.55497 15.2895C2.92896 16.6151 2.40495 17.8606 1.98558 19.0316L2.46646 19.2038ZM12.3897 29.4966L2.41161 18.9422L2.04043 19.2931L12.0185 29.8475L12.3897 29.4966ZM11.9487 24.3029V29.672H12.4595V24.3029H11.9487ZM3.60032 15.574L12.0185 24.4784L12.3897 24.1275L3.9715 15.2231L3.60032 15.574ZM1.26119 21.377C0.304677 25.1391 0.658021 28.0632 2.47854 30.3574C4.28514 32.6341 7.4992 34.2395 12.1386 35.4704L12.2696 34.9767C7.65801 33.7532 4.57946 32.1832 2.87867 30.0399C1.19178 27.9141 0.822924 25.1737 1.75623 21.5029L1.26119 21.377ZM12.3897 32.5776L1.6943 21.2645L1.32312 21.6154L12.0185 32.9285L12.3897 32.5776ZM12.4595 35.2236V32.753H11.9487V35.2236H12.4595ZM8.2438 7.15451L12.0271 10.7928L12.3811 10.4246L8.59786 6.78634L8.2438 7.15451ZM11.9904 0.860184C10.6039 2.97736 9.34025 4.96702 8.20261 6.83772L8.63905 7.10313C9.77307 5.23837 11.0335 3.25364 12.4177 1.14004L11.9904 0.860184ZM12.4595 10.6087V1.00011H11.9487V10.6087H12.4595Z" fill="url(#paint1_linear_6_354)"/>
<path d="M34.4497 26H30.8308L37.4199 7.28371H41.6054L48.2037 26H44.5847L39.5858 11.122H39.4395L34.4497 26ZM34.5685 18.6615H44.4385V21.3849H34.5685V18.6615ZM59.4695 20.0963V11.9628H62.7778V26H59.5701V23.5051H59.4238C59.107 24.291 58.5861 24.9338 57.8611 25.4334C57.1422 25.933 56.2557 26.1828 55.2017 26.1828C54.2817 26.1828 53.4684 25.9787 52.7616 25.5705C52.061 25.1562 51.5127 24.5561 51.1167 23.7701C50.7206 22.9781 50.5226 22.0216 50.5226 20.9005V11.9628H53.8309V20.3888C53.8309 21.2783 54.0746 21.985 54.562 22.509C55.0494 23.0329 55.6891 23.2949 56.4811 23.2949C56.9685 23.2949 57.4407 23.1761 57.8977 22.9385C58.3546 22.7009 58.7293 22.3475 59.0217 21.8784C59.3203 21.4032 59.4695 20.8092 59.4695 20.0963ZM73.1892 11.9628V14.5217H65.1196V11.9628H73.1892ZM67.1119 8.5997H70.4201V21.7779C70.4201 22.2226 70.4871 22.5638 70.6212 22.8014C70.7613 23.0329 70.9441 23.1913 71.1695 23.2766C71.3949 23.3619 71.6447 23.4046 71.9189 23.4046C72.126 23.4046 72.3149 23.3893 72.4855 23.3589C72.6622 23.3284 72.7962 23.301 72.8876 23.2766L73.4451 25.8629C73.2684 25.9238 73.0155 25.9909 72.6865 26.064C72.3636 26.1371 71.9676 26.1797 71.4985 26.1919C70.6699 26.2163 69.9236 26.0914 69.2595 25.8172C68.5954 25.537 68.0684 25.1044 67.6785 24.5195C67.2946 23.9346 67.1058 23.2035 67.1119 22.3262V8.5997ZM81.9282 26.2742C80.5573 26.2742 79.3693 25.9726 78.364 25.3694C77.3588 24.7663 76.5789 23.9224 76.0245 22.838C75.4762 21.7535 75.202 20.4862 75.202 19.0362C75.202 17.5862 75.4762 16.3159 76.0245 15.2253C76.5789 14.1348 77.3588 13.2879 78.364 12.6848C79.3693 12.0816 80.5573 11.78 81.9282 11.78C83.299 11.78 84.487 12.0816 85.4923 12.6848C86.4976 13.2879 87.2744 14.1348 87.8227 15.2253C88.3771 16.3159 88.6543 17.5862 88.6543 19.0362C88.6543 20.4862 88.3771 21.7535 87.8227 22.838C87.2744 23.9224 86.4976 24.7663 85.4923 25.3694C84.487 25.9726 83.299 26.2742 81.9282 26.2742ZM81.9464 23.6239C82.6897 23.6239 83.3112 23.4198 83.8108 23.0116C84.3103 22.5973 84.682 22.0429 84.9257 21.3483C85.1755 20.6538 85.3004 19.88 85.3004 19.0271C85.3004 18.168 85.1755 17.3912 84.9257 16.6967C84.682 15.996 84.3103 15.4386 83.8108 15.0243C83.3112 14.61 82.6897 14.4028 81.9464 14.4028C81.1849 14.4028 80.5512 14.61 80.0456 15.0243C79.546 15.4386 79.1713 15.996 78.9215 16.6967C78.6778 17.3912 78.5559 18.168 78.5559 19.0271C78.5559 19.88 78.6778 20.6538 78.9215 21.3483C79.1713 22.0429 79.546 22.5973 80.0456 23.0116C80.5512 23.4198 81.1849 23.6239 81.9464 23.6239ZM102.557 15.6731L99.5409 16.0021C99.4556 15.6975 99.3064 15.4112 99.0931 15.1431C98.886 14.875 98.6057 14.6587 98.2524 14.4942C97.899 14.3297 97.4664 14.2475 96.9547 14.2475C96.2662 14.2475 95.6874 14.3968 95.2183 14.6953C94.7552 14.9938 94.5268 15.3807 94.5329 15.8559C94.5268 16.2641 94.676 16.5962 94.9807 16.852C95.2914 17.1079 95.8032 17.3181 96.516 17.4826L98.9104 17.9944C100.239 18.2807 101.226 18.7346 101.871 19.3561C102.523 19.9775 102.852 20.7909 102.858 21.7961C102.852 22.6796 102.593 23.4594 102.082 24.1357C101.576 24.8059 100.872 25.3298 99.9705 25.7076C99.0688 26.0853 98.033 26.2742 96.8633 26.2742C95.1452 26.2742 93.7622 25.9147 92.7142 25.1958C91.6663 24.4708 91.0418 23.4625 90.8408 22.1708L94.0668 21.8601C94.213 22.4937 94.5237 22.972 94.9989 23.2949C95.4742 23.6178 96.0926 23.7793 96.8541 23.7793C97.6401 23.7793 98.2706 23.6178 98.7459 23.2949C99.2272 22.972 99.4678 22.5729 99.4678 22.0977C99.4678 21.6956 99.3125 21.3636 99.0017 21.1016C98.6971 20.8396 98.2219 20.6386 97.5761 20.4984L95.1817 19.9958C93.8353 19.7155 92.8391 19.2434 92.1933 18.5793C91.5475 17.9091 91.2277 17.0622 91.2338 16.0387C91.2277 15.1736 91.4622 14.4242 91.9374 13.7905C92.4188 13.1508 93.0859 12.6573 93.9388 12.3101C94.7979 11.9567 95.7879 11.78 96.909 11.78C98.5539 11.78 99.8486 12.1303 100.793 12.831C101.743 13.5316 102.331 14.479 102.557 15.6731ZM109.626 26.2833C108.736 26.2833 107.935 26.1249 107.222 25.8081C106.515 25.4852 105.955 25.01 105.541 24.3824C105.132 23.7549 104.928 22.9811 104.928 22.0612C104.928 21.2691 105.074 20.6142 105.367 20.0963C105.659 19.5785 106.058 19.1642 106.564 18.8534C107.07 18.5427 107.639 18.3082 108.273 18.1498C108.913 17.9853 109.574 17.8665 110.256 17.7933C111.079 17.7081 111.746 17.6319 112.258 17.5649C112.769 17.4918 113.141 17.3821 113.373 17.2359C113.61 17.0836 113.729 16.849 113.729 16.5322V16.4774C113.729 15.7889 113.525 15.2558 113.117 14.8781C112.708 14.5003 112.121 14.3115 111.353 14.3115C110.543 14.3115 109.9 14.4881 109.425 14.8415C108.955 15.1949 108.639 15.6122 108.474 16.0935L105.385 15.6549C105.629 14.8019 106.031 14.0891 106.592 13.5164C107.152 12.9376 107.837 12.505 108.648 12.2187C109.458 11.9262 110.354 11.78 111.335 11.78C112.011 11.78 112.684 11.8592 113.354 12.0176C114.024 12.176 114.637 12.438 115.191 12.8036C115.746 13.163 116.19 13.6535 116.525 14.2749C116.867 14.8963 117.037 15.6731 117.037 16.6053V26H113.857V24.0717H113.747C113.546 24.4616 113.263 24.8272 112.897 25.1684C112.538 25.5035 112.084 25.7746 111.536 25.9817C110.993 26.1828 110.357 26.2833 109.626 26.2833ZM110.485 23.8524C111.149 23.8524 111.724 23.7214 112.212 23.4594C112.699 23.1913 113.074 22.838 113.336 22.3993C113.604 21.9606 113.738 21.4824 113.738 20.9645V19.3104C113.635 19.3957 113.458 19.4749 113.208 19.548C112.964 19.6211 112.69 19.6851 112.386 19.7399C112.081 19.7947 111.779 19.8435 111.481 19.8861C111.182 19.9288 110.923 19.9653 110.704 19.9958C110.211 20.0628 109.769 20.1725 109.379 20.3248C108.989 20.4771 108.681 20.6903 108.456 20.9645C108.23 21.2326 108.118 21.5799 108.118 22.0063C108.118 22.6156 108.34 23.0756 108.785 23.3863C109.23 23.697 109.796 23.8524 110.485 23.8524ZM120.364 31.264V11.9628H123.617V14.284H123.809C123.98 13.9429 124.22 13.5804 124.531 13.1965C124.842 12.8066 125.262 12.4746 125.792 12.2004C126.322 11.9201 126.998 11.78 127.821 11.78C128.905 11.78 129.883 12.0572 130.755 12.6116C131.632 13.16 132.326 13.9733 132.838 15.0517C133.356 16.124 133.615 17.44 133.615 18.9997C133.615 20.5411 133.362 21.851 132.856 22.9294C132.351 24.0077 131.662 24.8302 130.791 25.3968C129.92 25.9634 128.933 26.2467 127.83 26.2467C127.026 26.2467 126.359 26.1127 125.829 25.8446C125.299 25.5766 124.872 25.2537 124.549 24.8759C124.232 24.4921 123.986 24.1296 123.809 23.7884H123.672V31.264H120.364ZM123.608 18.9814C123.608 19.8892 123.736 20.6843 123.992 21.3666C124.254 22.049 124.629 22.5821 125.116 22.9659C125.609 23.3437 126.206 23.5325 126.907 23.5325C127.638 23.5325 128.251 23.3376 128.744 22.9476C129.238 22.5516 129.609 22.0124 129.859 21.3301C130.115 20.6416 130.243 19.8587 130.243 18.9814C130.243 18.1102 130.118 17.3364 129.868 16.6601C129.618 15.9839 129.247 15.4538 128.753 15.07C128.26 14.6861 127.644 14.4942 126.907 14.4942C126.2 14.4942 125.6 14.6801 125.107 15.0517C124.613 15.4233 124.239 15.9443 123.983 16.6144C123.733 17.2846 123.608 18.0736 123.608 18.9814Z" fill="white"/>
<rect x="29.9583" y="29.2261" width="56.8881" height="1.89627" fill="url(#paint2_linear_6_354)"/>
<defs>
<linearGradient id="paint0_linear_6_354" x1="11.7268" y1="1" x2="15.3023" y2="35.7343" gradientUnits="userSpaceOnUse">
<stop stop-color="#78CF21" stop-opacity="0.68"/>
<stop offset="1" stop-color="#337A5B"/>
</linearGradient>
<linearGradient id="paint1_linear_6_354" x1="12.987" y1="1" x2="12.987" y2="35.2235" gradientUnits="userSpaceOnUse">
<stop stop-color="#94D263"/>
<stop offset="1" stop-color="#3D835B"/>
</linearGradient>
<linearGradient id="paint2_linear_6_354" x1="29.9583" y1="30.1742" x2="92.1796" y2="30.1742" gradientUnits="userSpaceOnUse">
<stop stop-color="#3D835B"/>
<stop offset="1" stop-color="#97D564"/>
</linearGradient>
</defs>
</svg>
