<svg width="39" height="40" viewBox="0 0 39 40" fill="none" xmlns="http://www.w3.org/2000/svg">
<circle cx="19.5" cy="20.25" r="19.5" fill="white"/>
<path d="M27 20.625C27 16.276 23.474 12.75 19.125 12.75C14.776 12.75 11.25 16.276 11.25 20.625C11.25 24.974 14.776 28.5 19.125 28.5C23.474 28.5 27 24.974 27 20.625Z" stroke="#285A43" stroke-width="1.5" stroke-miterlimit="10"/>
<path d="M26.5856 17.4982C25.9762 17.5021 26.0361 18.633 25.2768 18.0994C24.9949 17.9017 24.8215 17.6143 24.4675 17.5269C24.1582 17.4505 23.8414 17.5299 23.5359 17.583C23.1887 17.6433 22.777 17.6704 22.5136 17.9349C22.259 18.1895 22.1243 18.5311 21.8534 18.7872C21.3294 19.2834 21.1081 19.825 21.4474 20.5265C21.7737 21.2009 22.4564 21.5669 23.1929 21.5188C23.9165 21.4704 24.6682 21.0482 24.6473 22.1059C24.6397 22.4799 24.7175 22.7394 24.8317 23.0872C24.9376 23.4078 24.9304 23.7184 24.9547 24.0494C24.9995 24.6677 25.1125 25.3608 25.4176 25.907L25.9868 25.0994C26.057 24.9994 26.2039 24.8593 26.2388 24.7413C26.3006 24.5326 26.1788 24.1738 26.1648 23.9398C26.1507 23.7058 26.1576 23.4688 26.1219 23.2349C26.0718 22.907 25.879 22.5997 25.8525 22.2757C25.8035 21.6723 25.9132 21.1906 25.451 20.686C25.0048 20.1994 24.3506 20.0826 23.7256 20.1814C23.4107 20.2311 22.1429 20.4349 22.6518 19.7108C22.7523 19.5685 22.928 19.4517 23.0411 19.3162C23.1394 19.1982 23.2247 18.9814 23.3401 18.8895C23.4555 18.7975 23.9852 18.6917 24.137 18.7387C24.2887 18.7856 24.447 19.0059 24.5786 19.1036C24.8219 19.2879 25.1058 19.4104 25.4062 19.4608C25.9246 19.5372 27.0083 19.2341 27 18.5654C26.9984 18.2448 26.7025 17.7982 26.5856 17.4982ZM20.5856 23.0005C20.3834 22.144 19.2264 21.8578 18.6026 21.3933C18.244 21.1261 17.9249 20.7135 17.454 20.6799C17.2369 20.6643 17.0552 20.7116 16.84 20.6555C16.6427 20.6043 16.4879 20.4975 16.2777 20.5253C15.8849 20.5772 15.6372 20.9994 15.2152 20.9421C14.8149 20.8879 14.4024 20.4169 14.3113 20.0333C14.1945 19.5402 14.5823 19.3803 14.9978 19.3364C15.1712 19.3181 15.3658 19.2982 15.5324 19.362C15.7518 19.444 15.8553 19.6601 16.0523 19.7692C16.4215 19.9727 16.4962 19.6475 16.4397 19.3177C16.3551 18.8238 16.2564 18.6223 16.6943 18.2826C16.9979 18.0482 17.2574 17.8788 17.2089 17.4578C17.18 17.2105 17.0453 17.0986 17.1709 16.8524C17.2662 16.665 17.5276 16.496 17.698 16.3841C18.1378 16.0956 19.582 16.117 18.9919 15.3093C18.8185 15.0723 18.4986 14.6486 18.1951 14.5906C17.8156 14.5185 17.6471 14.9444 17.3827 15.1322C17.1094 15.3265 16.5774 15.5471 16.3039 15.2467C15.9358 14.8425 16.5478 14.7097 16.6833 14.4276C16.8188 14.1456 16.3695 13.6124 16.1289 13.4773L14.9978 14.7532C14.9653 14.9669 14.9766 15.185 15.031 15.3941C15.0854 15.6033 15.1818 15.799 15.3142 15.9692C15.5393 16.2605 15.8975 16.354 15.9138 16.7517C15.9297 17.1334 15.8705 17.3288 15.6224 17.5971C15.515 17.7116 15.4391 17.8742 15.3298 17.9814C15.1958 18.1124 15.2456 18.0723 15.0365 18.1082C14.6434 18.175 14.3087 18.278 13.9288 18.3834C13.2959 18.5593 13.2375 17.5192 12.9491 17.1112L12.0005 17.8818C11.9902 18.0082 12.156 18.2406 12.2012 18.378C12.4604 19.1631 12.9832 19.7704 13.321 20.5215C13.6765 21.3169 14.6312 21.0963 15.0528 21.7933C15.4269 22.4116 15.0274 23.1944 15.3074 23.8417C15.5108 24.3116 15.9904 24.4142 16.3213 24.7578C16.6594 25.1047 16.6522 25.5795 16.7038 26.031C16.762 26.5621 16.8565 27.0886 16.9865 27.6066C17.0324 27.7856 17.0745 28.0222 17.1963 28.17C17.2798 28.2715 17.5663 28.3589 17.4506 28.3925C17.6122 28.4192 17.9002 28.5711 18.0349 28.4596C18.2125 28.3131 18.1651 27.8619 18.1958 27.6581C18.288 27.0513 18.5901 26.4577 18.9976 26.0036C19.4002 25.5555 19.9519 25.252 20.2919 24.744C20.6232 24.2486 20.723 23.5803 20.5856 23.0005ZM19.3186 24.0051C19.091 24.4139 18.584 24.6875 18.2581 25.0123C18.1696 25.1005 17.9814 25.4058 17.8706 25.3398C17.7913 25.2925 17.7644 24.8963 17.7352 24.8055C17.5844 24.348 17.2967 23.9487 16.9114 23.6623C16.7926 23.5719 16.4981 23.4543 16.4302 23.3303C16.3543 23.1955 16.4226 22.8776 16.4253 22.731C16.4295 22.5173 16.3327 22.162 16.3851 21.9677C16.4458 21.7436 16.3289 21.8788 16.5281 21.8345C16.6332 21.8108 17.0673 21.8875 17.1982 21.915C17.4062 21.9585 17.5208 22.0887 17.6847 22.2204C18.1158 22.5681 18.5905 22.8372 19.0735 23.1036C19.4476 23.312 19.5577 23.5757 19.3186 24.0051ZM16.6776 13.4887C16.8575 13.6654 17.0267 13.8746 17.295 13.8922C17.5489 13.9093 17.7883 13.7712 18.0099 13.9448C18.2558 14.1357 18.433 14.3773 18.7593 14.4368C19.075 14.4944 19.4093 14.3089 19.4875 13.9841C19.5634 13.6746 19.3998 13.338 19.39 13.0273C19.39 12.9841 19.4131 12.7925 19.3835 12.7601C19.3615 12.7357 19.1779 12.7631 19.1498 12.7639C18.9441 12.77 18.739 12.7843 18.5343 12.8067C17.7882 12.8879 17.0576 13.0762 16.3646 13.3658C16.4568 13.4299 16.5725 13.4555 16.6776 13.4887ZM23.202 15.633C23.5241 15.633 23.8512 15.4879 23.7473 15.1131C23.66 14.799 23.5112 14.4582 23.1492 14.6276C22.9189 14.7353 22.5926 15.0093 22.5656 15.2811C22.5349 15.5895 22.9872 15.633 23.202 15.633ZM22.9447 17.2731C23.2737 17.4711 23.7617 17.378 24.0098 17.0952C24.2037 16.8738 24.318 16.4895 24.6667 16.4899C24.8202 16.4895 24.9677 16.55 25.0773 16.6582C25.2214 16.8082 25.193 16.949 25.2237 17.1368C25.2924 17.5585 25.7421 17.1608 25.8593 16.9975C25.9352 16.891 26.038 16.733 26.0035 16.5944C25.9716 16.465 25.8214 16.3273 25.7546 16.2086C25.5595 15.865 25.399 15.4654 25.1068 15.1879C24.8257 14.9208 24.48 14.9517 24.2132 15.2292C23.9947 15.4582 23.7408 15.6395 23.5913 15.9181C23.4858 16.1139 23.367 16.2074 23.1534 16.2582C23.0358 16.286 22.9015 16.2963 22.8028 16.3757C22.5281 16.5933 22.6844 17.1158 22.9447 17.2731Z" fill="#285A43"/>
</svg>
