<svg width="39" height="40" viewBox="0 0 39 40" fill="none" xmlns="http://www.w3.org/2000/svg">
<circle cx="19.5" cy="19.75" r="19.5" fill="white"/>
<path d="M26.5084 25.3416C25.9072 24.7358 24.451 23.8518 23.7445 23.4956C22.8245 23.0322 22.7488 22.9943 22.0256 23.5315C21.5432 23.8901 21.2226 24.2103 20.658 24.09C20.0935 23.9696 18.8668 23.2908 17.7927 22.2201C16.7186 21.1495 16.0003 19.8872 15.8795 19.3247C15.7588 18.7621 16.0844 18.4452 16.4395 17.9617C16.94 17.2803 16.9022 17.1667 16.4743 16.2467C16.1408 15.5312 15.231 14.0888 14.6229 13.4906C13.9725 12.8481 13.9725 12.9617 13.5533 13.1358C13.2121 13.2794 12.8848 13.4539 12.5754 13.6572C11.9696 14.0596 11.6334 14.3939 11.3983 14.8963C11.1631 15.3987 11.0575 16.5765 12.2717 18.7821C13.4859 20.9878 14.3378 22.1156 16.101 23.8738C17.8642 25.632 19.2201 26.5773 21.2021 27.6888C23.654 29.062 24.5945 28.7943 25.0984 28.5596C25.6024 28.3249 25.9382 27.9917 26.3414 27.386C26.5452 27.0771 26.7201 26.7501 26.8639 26.4092C27.0385 25.9916 27.152 25.9916 26.5084 25.3416Z" stroke="#285A43" stroke-width="1.5" stroke-miterlimit="10"/>
</svg>
