<svg width="314" height="265" viewBox="0 0 314 265" fill="none" xmlns="http://www.w3.org/2000/svg">
<path d="M313.28 100.611C313.229 99.631 312.854 98.6954 312.214 97.9523C311.573 97.2093 310.703 96.7012 309.742 96.5083C301.641 94.9414 293.396 94.2381 285.147 94.4102C285.033 94.4252 284.917 94.4173 284.806 94.3869C284.695 94.3565 284.592 94.3043 284.501 94.2333C284.411 94.1623 284.335 94.0739 284.279 93.9733C284.223 93.8727 284.188 93.7619 284.175 93.6475C284.14 93.544 284.126 93.4345 284.134 93.3255C284.143 93.2166 284.173 93.1105 284.224 93.0137C284.274 92.9168 284.344 92.8313 284.429 92.7623C284.513 92.6933 284.611 92.6422 284.716 92.6122C291.752 89.4967 299.127 87.2146 306.691 85.8126C307.289 85.7061 307.858 85.4773 308.363 85.1405C308.868 84.8037 309.298 84.3661 309.627 83.8551C309.955 83.3442 310.175 82.7708 310.272 82.1709C310.369 81.5711 310.341 80.9576 310.19 80.369C307.279 69.0044 302.509 58.2008 296.073 48.396C295.993 48.2738 295.907 48.155 295.815 48.0415L294.437 46.3359C293.922 45.698 293.239 45.2164 292.466 44.9452C291.692 44.6739 290.859 44.6238 290.058 44.8003C278.828 47.4105 267.995 51.5064 257.844 56.9801C257.474 57.2095 257.03 57.2896 256.603 57.204C256.175 57.1183 255.796 56.8735 255.542 56.5189C255.253 56.2104 255.093 55.8021 255.097 55.3789C255.101 54.9556 255.268 54.5502 255.563 54.247C262.01 46.2952 269.51 39.2605 277.856 33.3371C278.354 32.9908 278.775 32.5455 279.093 32.0289C279.412 31.5124 279.62 30.9357 279.706 30.3349C279.791 29.7341 279.752 29.122 279.591 28.5369C279.43 27.9518 279.15 27.4063 278.769 26.9344L276.954 24.6885C271.761 18.0442 265.31 12.491 257.969 8.34719C250.629 4.20333 242.544 1.55016 234.178 0.539681C229.851 -0.0177961 225.454 0.410955 221.316 1.7939C217.178 3.17684 213.406 5.47821 210.281 8.52604C207.156 11.5739 204.76 15.2894 203.271 19.3948C201.782 23.5003 201.239 27.8896 201.682 32.2348L202.563 42.0238C202.671 43.2275 202.517 44.4404 202.112 45.5788C201.706 46.7173 201.059 47.7541 200.215 48.6179C199.371 49.4816 198.349 50.1517 197.221 50.5819C196.093 51.0121 194.885 51.1921 193.681 51.1096L183.887 50.4393C179.538 50.0892 175.167 50.7275 171.1 52.3065C167.032 53.8856 163.374 56.3645 160.398 59.5581C157.422 62.7517 155.205 66.5774 153.913 70.7493C152.622 74.9212 152.288 79.3314 152.938 83.6504C154.124 91.9929 156.941 100.02 161.228 107.271C165.515 114.522 171.189 120.856 177.923 125.91L180.257 127.716C180.79 128.123 181.409 128.402 182.066 128.533C178.682 164.891 177.88 211.687 179.672 268.329H152.616C157.241 223.059 155.276 191.08 150.255 168.491C154.494 159.292 156.461 149.209 155.992 139.09C155.836 134.725 154.697 130.452 152.659 126.59C150.622 122.727 147.739 119.376 144.226 116.786C140.713 114.197 136.661 112.435 132.373 111.634C128.085 110.832 123.671 111.011 119.461 112.158L109.958 114.623C108.79 114.926 107.57 114.972 106.382 114.757C105.194 114.542 104.067 114.072 103.078 113.379C102.089 112.685 101.262 111.786 100.654 110.742C100.047 109.697 99.6721 108.534 99.5569 107.331L98.6204 97.5466C98.2566 93.194 96.9151 88.98 94.696 85.2194C92.4769 81.4589 89.4377 78.2491 85.8055 75.8299C82.1732 73.4107 78.0418 71.8446 73.7201 71.2488C69.3984 70.6529 64.998 71.0427 60.8479 72.3889C52.8205 74.9203 45.3705 79.0115 38.924 84.4286C32.4776 89.8457 27.1612 96.4822 23.2791 103.959L21.8784 106.558C21.5906 107.092 21.4159 107.68 21.3652 108.285C21.3144 108.889 21.3888 109.498 21.5836 110.073C21.7784 110.648 22.0895 111.176 22.4973 111.625C22.9052 112.074 23.4012 112.434 23.9543 112.682C33.2467 116.965 41.9129 122.496 49.7137 129.121C50.0594 129.365 50.2979 129.733 50.3794 130.148C50.461 130.563 50.3794 130.994 50.1515 131.351C49.9678 131.747 49.6404 132.058 49.236 132.221C48.8316 132.384 48.3803 132.387 47.9739 132.229C36.9899 128.721 25.5884 126.694 14.07 126.2C13.2516 126.179 12.4433 126.384 11.7337 126.793C11.0242 127.202 10.441 127.798 10.0481 128.518L9.0083 130.448C8.93898 130.577 8.87621 130.709 8.82023 130.844C4.29873 141.668 1.59816 153.167 0.828042 164.874C0.788225 165.48 0.873863 166.088 1.07959 166.66C1.28532 167.232 1.60671 167.755 2.02364 168.196C2.44058 168.638 2.94408 168.989 3.50263 169.227C4.06118 169.464 4.66275 169.584 5.26969 169.579C12.9624 169.564 20.6305 170.447 28.1193 172.208C28.228 172.218 28.3335 172.251 28.4294 172.303C28.5253 172.355 28.6096 172.426 28.6772 172.512C28.7448 172.598 28.7942 172.697 28.8225 172.802C28.8508 172.908 28.8574 173.018 28.8418 173.126C28.8509 173.241 28.8369 173.357 28.8005 173.466C28.7642 173.575 28.7063 173.676 28.6303 173.763C28.5544 173.849 28.4618 173.92 28.3581 173.97C28.2545 174.02 28.1418 174.049 28.0269 174.055C19.8877 175.41 11.9142 177.622 4.23893 180.654C3.32959 181.021 2.56832 181.681 2.07541 182.53C1.58251 183.378 1.38609 184.367 1.51718 185.34C1.97778 188.757 2.58332 192.057 3.31685 195.147L11.522 229.685C12.1786 232.444 13.7442 234.901 15.9663 236.661C18.1885 238.42 20.9376 239.378 23.7704 239.381C24.2588 239.381 24.7467 239.353 25.2318 239.296L60.4539 235.203C63.604 234.837 66.9082 234.278 70.2735 233.542C71.2314 233.333 72.0923 232.81 72.7201 232.056C73.348 231.302 73.7069 230.36 73.7403 229.379C73.9609 221.121 73.3101 212.863 71.7986 204.741C71.7647 204.631 71.7531 204.515 71.7647 204.401C71.7763 204.286 71.8107 204.175 71.866 204.074C71.9212 203.973 71.9961 203.884 72.0863 203.812C72.1765 203.741 72.2801 203.688 72.391 203.657C72.4872 203.605 72.593 203.574 72.7018 203.564C72.8106 203.555 72.9202 203.568 73.024 203.602C73.1277 203.636 73.2234 203.691 73.3053 203.764C73.3871 203.836 73.4534 203.924 73.5001 204.023C77.7171 210.465 81.1683 217.378 83.7835 224.621C83.9857 225.194 84.3039 225.719 84.7181 226.164C85.1324 226.608 85.6337 226.961 86.1908 227.203C86.7478 227.444 87.3486 227.567 87.9555 227.565C88.5625 227.563 89.1625 227.436 89.718 227.191C100.442 222.463 110.311 215.989 118.924 208.033C119.031 207.934 119.134 207.829 119.231 207.72L120.687 206.081C121.232 205.468 121.595 204.715 121.736 203.907C121.877 203.099 121.791 202.267 121.486 201.505C117.083 190.837 111.281 180.804 104.233 171.669C103.946 171.341 103.795 170.915 103.809 170.479C103.824 170.043 104.004 169.629 104.312 169.32C104.568 168.984 104.945 168.759 105.363 168.694C105.78 168.629 106.207 168.728 106.554 168.97C115.441 174.042 123.596 180.304 130.793 187.582C131.215 188.018 131.723 188.361 132.283 188.592C132.844 188.822 133.447 188.934 134.053 188.921C134.659 188.907 135.256 188.769 135.806 188.514C136.356 188.26 136.848 187.895 137.251 187.441L139.169 185.282C140.736 183.563 142.209 181.76 143.581 179.881C147.007 200.921 147.853 229.502 143.782 268.33H88.608C87.9463 268.33 87.2931 268.479 86.6967 268.766C86.1003 269.053 85.5762 269.471 85.163 269.988C84.7498 270.506 84.4582 271.11 84.3098 271.755C84.1614 272.401 84.1601 273.072 84.3058 273.718L109.645 386.088C110.898 391.762 114.054 396.835 118.588 400.463C123.121 404.092 128.759 406.057 134.563 406.032H195.323C201.127 406.057 206.765 404.092 211.298 400.463C215.832 396.835 218.988 391.761 220.242 386.087L245.581 273.717C245.727 273.071 245.725 272.4 245.577 271.755C245.429 271.109 245.137 270.505 244.724 269.988C244.311 269.47 243.787 269.053 243.19 268.766C242.594 268.478 241.941 268.329 241.279 268.329H188.499C186.3 199.028 188.229 151.781 191.825 119.58C196.404 113.899 201.493 108.65 207.028 103.898C207.325 103.597 207.726 103.422 208.149 103.409C208.571 103.396 208.982 103.547 209.297 103.83C209.656 104.076 209.909 104.45 210.004 104.876C210.099 105.302 210.028 105.748 209.807 106.124C204.559 116.402 200.703 127.335 198.339 138.633C198.18 139.437 198.247 140.271 198.535 141.039C198.822 141.808 199.318 142.481 199.966 142.983L201.699 144.325C201.815 144.414 201.935 144.497 202.058 144.575C211.988 150.806 222.879 155.348 234.29 158.018C234.881 158.156 235.494 158.17 236.091 158.06C236.688 157.95 237.255 157.718 237.758 157.378C238.262 157.038 238.689 156.598 239.015 156.085C239.34 155.572 239.556 154.997 239.65 154.397C240.887 146.795 243.007 139.364 245.967 132.255C245.995 132.149 246.044 132.05 246.111 131.964C246.178 131.878 246.262 131.806 246.357 131.754C246.453 131.701 246.558 131.668 246.667 131.657C246.775 131.646 246.885 131.658 246.989 131.69C247.104 131.7 247.215 131.733 247.317 131.786C247.419 131.84 247.509 131.914 247.582 132.003C247.655 132.092 247.709 132.195 247.742 132.306C247.774 132.416 247.784 132.532 247.771 132.647C247.78 140.908 248.66 149.145 250.397 157.221C250.61 158.179 251.136 159.038 251.892 159.664C252.648 160.289 253.59 160.644 254.57 160.673C255.656 160.706 256.731 160.722 257.796 160.722C260.106 160.722 262.36 160.646 264.528 160.495L299.9 158.02C302.977 157.804 305.868 156.465 308.025 154.258C310.183 152.051 311.457 149.128 311.607 146.044L313.315 110.583C313.468 107.41 313.456 104.055 313.28 100.611ZM133.741 178.104C126.815 171.67 119.182 166.045 110.988 161.335C108.882 160.055 106.39 159.567 103.958 159.957C101.525 160.347 99.3103 161.59 97.709 163.465C96.0576 165.305 95.1024 167.667 95.0096 170.139C94.9167 172.612 95.692 175.039 97.2007 176.998C103.185 184.775 108.227 193.235 112.22 202.201C105.647 208.152 98.293 213.178 90.3624 217.138C87.7613 210.892 84.5963 204.897 80.9069 199.228C79.6799 197.331 77.8338 195.918 75.6832 195.231C73.5326 194.543 71.2105 194.624 69.1126 195.459C67.0146 196.293 65.2706 197.83 64.1776 199.808C63.0847 201.786 62.7104 204.082 63.1186 206.305C64.2921 212.671 64.9136 219.127 64.9762 225.6C63.0836 225.944 61.2303 226.223 59.4364 226.431L24.2151 230.524C23.296 230.631 22.3695 230.397 21.6114 229.865C20.8534 229.334 20.3166 228.542 20.1028 227.641L11.8977 193.104C11.48 191.344 11.1072 189.506 10.7837 187.607C16.8804 185.452 23.1519 183.829 29.5281 182.756C31.7541 182.38 33.7809 181.242 35.2632 179.538C36.7455 177.833 37.5917 175.666 37.6576 173.407C37.7234 171.148 37.0049 168.936 35.6245 167.147C34.244 165.359 32.287 164.105 30.0867 163.599C23.5038 162.067 16.795 161.14 10.0437 160.829C11.0477 152.013 13.2486 143.376 16.5855 135.156C26.3663 135.847 36.0307 137.697 45.3763 140.667C47.7313 141.417 50.2743 141.317 52.5632 140.384C54.8521 139.451 56.7422 137.745 57.9048 135.561C59.1167 133.414 59.5263 130.904 59.0604 128.482C58.5946 126.06 57.2837 123.882 55.3619 122.338C48.139 116.24 40.2482 110.983 31.8409 106.667C38.6877 94.3248 49.997 85.0783 63.4436 80.8284C66.3423 79.8679 69.4213 79.58 72.4475 79.9867C75.4738 80.3934 78.368 81.4839 80.9112 83.1757C83.4544 84.8675 85.58 87.1163 87.127 89.752C88.674 92.3876 89.6021 95.341 89.8408 98.3888L90.7773 108.173C91.1216 111.734 92.5697 115.098 94.9188 117.793C94.5227 118.074 94.1761 118.419 93.8934 118.814L42.9071 191.718C42.5696 192.193 42.3293 192.73 42.2 193.298C42.0707 193.866 42.055 194.454 42.1539 195.028C42.2527 195.603 42.4641 196.152 42.7758 196.644C43.0876 197.136 43.4936 197.561 43.9703 197.895C44.4471 198.23 44.9852 198.466 45.5536 198.591C46.1221 198.716 46.7096 198.727 47.2824 198.624C47.8552 198.52 48.4018 198.305 48.8908 197.989C49.3799 197.673 49.8016 197.263 50.1317 196.783L101.118 123.879C101.392 123.478 101.597 123.034 101.725 122.565C105.059 123.854 108.711 124.066 112.171 123.171L121.674 120.705C124.616 119.888 127.705 119.751 130.708 120.305C133.711 120.859 136.548 122.09 139.006 123.904C141.464 125.718 143.477 128.068 144.894 130.776C146.31 133.484 147.093 136.479 147.184 139.534C147.791 153.639 142.98 167.44 133.741 178.104ZM211.637 384.142C210.817 387.857 208.75 391.179 205.782 393.554C202.814 395.93 199.123 397.217 195.323 397.2H134.563C130.763 397.217 127.072 395.93 124.104 393.554C121.135 391.179 119.069 387.857 118.248 384.142L94.1246 277.16H235.762L211.637 384.142ZM304.505 110.157L302.797 145.618C302.752 146.543 302.37 147.42 301.723 148.082C301.075 148.744 300.208 149.145 299.285 149.21L263.914 151.685C262.111 151.811 260.238 151.879 258.316 151.889C257.185 145.515 256.608 139.055 256.591 132.582C256.594 130.311 255.802 128.111 254.353 126.364C252.904 124.617 250.89 123.434 248.66 123.019C248.034 122.898 247.398 122.836 246.761 122.836C244.832 122.834 242.948 123.412 241.351 124.495C239.754 125.577 238.518 127.115 237.803 128.908C235.221 135.161 233.213 141.637 231.806 148.255C223.283 145.826 215.13 142.244 207.574 137.608C209.849 128.059 213.248 118.813 217.699 110.066C218.821 107.861 219.136 105.333 218.59 102.92C218.044 100.507 216.671 98.3616 214.709 96.857C212.79 95.3097 210.384 94.496 207.921 94.5614C205.458 94.6268 203.099 95.567 201.265 97.214C194.077 103.354 187.61 110.292 181.987 117.894C170.941 109.118 163.673 96.4393 161.677 82.4635C161.203 79.4434 161.421 76.3549 162.316 73.4317C163.21 70.5085 164.756 67.8273 166.838 65.5908C168.92 63.3543 171.483 61.6213 174.332 60.5227C177.182 59.4242 180.244 58.989 183.286 59.25L193.08 59.9203C196.645 60.1607 200.196 59.2787 203.236 57.3976C203.448 57.8348 203.731 58.2335 204.074 58.5773L267.604 120.828C268.44 121.647 269.566 122.1 270.736 122.087C271.906 122.075 273.022 121.597 273.84 120.76C274.658 119.923 275.111 118.795 275.098 117.624C275.086 116.453 274.609 115.335 273.773 114.516L210.243 52.2657C209.893 51.9298 209.489 51.6548 209.048 51.452C210.86 48.3689 211.665 44.7953 211.348 41.2316L210.467 31.4428C210.141 28.4032 210.51 25.3291 211.545 22.4533C212.581 19.5774 214.256 16.975 216.445 14.843C218.633 12.7111 221.277 11.1054 224.177 10.1474C227.076 9.18947 230.156 8.90437 233.181 9.31369C247.178 11.0134 259.994 18.0149 268.996 28.88C261.527 34.6729 254.739 41.296 248.763 48.6222C247.158 50.4939 246.27 52.8758 246.258 55.3425C246.246 57.8091 247.11 60.1997 248.696 62.0873C250.241 64.0186 252.413 65.3471 254.834 65.8419C257.256 66.3366 259.774 65.9663 261.951 64.7953C270.59 60.1517 279.748 56.5505 289.235 54.0674C294.027 61.5308 297.779 69.6139 300.389 78.093C293.81 79.6443 287.387 81.7935 281.199 84.5138C279.129 85.4166 277.436 87.0099 276.408 89.0224C275.38 91.0348 275.081 93.3418 275.562 95.5504C276.042 97.7589 277.273 99.7323 279.043 101.134C280.814 102.536 283.016 103.28 285.273 103.239C291.737 103.117 298.2 103.556 304.589 104.55C304.62 106.475 304.592 108.351 304.505 110.157Z" fill="white"/>
</svg>
