<svg width="15" height="12" viewBox="0 0 15 12" fill="none" xmlns="http://www.w3.org/2000/svg">
<path d="M12.9668 3.55371C12.9668 3.68555 12.9668 3.79102 12.9668 3.92285C12.9668 7.58789 10.1982 11.7803 5.10935 11.7803C3.52732 11.7803 2.07712 11.332 0.864233 10.541C1.07517 10.5674 1.28611 10.5938 1.52341 10.5938C2.8154 10.5938 4.00193 10.1455 4.95115 9.40723C3.73826 9.38086 2.70994 8.58984 2.36716 7.48242C2.55173 7.50879 2.70994 7.53516 2.89451 7.53516C3.13181 7.53516 3.39548 7.48242 3.60642 7.42969C2.3408 7.16602 1.39158 6.05859 1.39158 4.71387V4.6875C1.76072 4.89844 2.20896 5.00391 2.6572 5.03027C1.89255 4.5293 1.41794 3.68555 1.41794 2.73633C1.41794 2.20898 1.54978 1.73438 1.78708 1.33887C3.15818 3 5.21482 4.10742 7.50876 4.23926C7.45603 4.02832 7.42966 3.81738 7.42966 3.60645C7.42966 2.07715 8.66892 0.837891 10.1982 0.837891C10.9892 0.837891 11.7011 1.1543 12.2285 1.70801C12.8349 1.57617 13.4414 1.33887 13.9687 1.02246C13.7578 1.68164 13.3359 2.20898 12.7558 2.55176C13.3095 2.49902 13.8633 2.34082 14.3379 2.12988C13.9687 2.68359 13.4941 3.1582 12.9668 3.55371Z" fill="#292F36"/>
</svg>
