<svg width="13" height="13" viewBox="0 0 13 13" fill="none" xmlns="http://www.w3.org/2000/svg">
<path d="M2.98495 12.3584H0.532801V4.47461H2.98495V12.3584ZM1.74569 3.41992C0.981043 3.41992 0.348231 2.76074 0.348231 1.96973C0.348231 1.20508 0.981043 0.572266 1.74569 0.572266C2.53671 0.572266 3.16952 1.20508 3.16952 1.96973C3.16952 2.76074 2.53671 3.41992 1.74569 3.41992ZM12.1344 12.3584H9.70858V8.53516C9.70858 7.6123 9.68221 6.45215 8.41659 6.45215C7.15096 6.45215 6.96639 7.42773 6.96639 8.45605V12.3584H4.51425V4.47461H6.86093V5.55566H6.88729C7.23007 4.94922 8.02108 4.29004 9.20761 4.29004C11.6861 4.29004 12.1607 5.9248 12.1607 8.03418V12.3584H12.1344Z" fill="#292F36"/>
</svg>
