<svg width="13" height="13" viewBox="0 0 13 13" fill="none" xmlns="http://www.w3.org/2000/svg">
<path d="M6.64798 3.45557C8.4014 3.45557 9.84866 4.90283 9.84866 6.65625C9.84866 8.4375 8.4014 9.85693 6.64798 9.85693C4.86673 9.85693 3.4473 8.4375 3.4473 6.65625C3.4473 4.90283 4.86673 3.45557 6.64798 3.45557ZM6.64798 8.74365C7.78909 8.74365 8.70755 7.8252 8.70755 6.65625C8.70755 5.51514 7.78909 4.59668 6.64798 4.59668C5.47903 4.59668 4.56058 5.51514 4.56058 6.65625C4.56058 7.8252 5.50687 8.74365 6.64798 8.74365ZM10.7115 3.34424C10.7115 3.76172 10.3775 4.0957 9.95999 4.0957C9.54251 4.0957 9.20853 3.76172 9.20853 3.34424C9.20853 2.92676 9.54251 2.59277 9.95999 2.59277C10.3775 2.59277 10.7115 2.92676 10.7115 3.34424ZM12.8267 4.0957C12.8824 5.12549 12.8824 8.21484 12.8267 9.24463C12.771 10.2466 12.5484 11.1094 11.8247 11.8608C11.1011 12.5845 10.2105 12.8071 9.20853 12.8628C8.17874 12.9185 5.08939 12.9185 4.0596 12.8628C3.05765 12.8071 2.19485 12.5845 1.44339 11.8608C0.719757 11.1094 0.497101 10.2466 0.441437 9.24463C0.385773 8.21484 0.385773 5.12549 0.441437 4.0957C0.497101 3.09375 0.719757 2.20312 1.44339 1.47949C2.19485 0.755859 3.05765 0.533203 4.0596 0.477539C5.08939 0.421875 8.17874 0.421875 9.20853 0.477539C10.2105 0.533203 11.1011 0.755859 11.8247 1.47949C12.5484 2.20312 12.771 3.09375 12.8267 4.0957ZM11.4908 10.3301C11.8247 9.52295 11.7412 7.57471 11.7412 6.65625C11.7412 5.76562 11.8247 3.81738 11.4908 2.98242C11.2681 2.45361 10.8506 2.0083 10.3218 1.81348C9.48685 1.47949 7.5386 1.56299 6.64798 1.56299C5.72952 1.56299 3.78128 1.47949 2.97415 1.81348C2.41751 2.03613 2.00003 2.45361 1.77737 2.98242C1.44339 3.81738 1.52689 5.76562 1.52689 6.65625C1.52689 7.57471 1.44339 9.52295 1.77737 10.3301C2.00003 10.8867 2.41751 11.3042 2.97415 11.5269C3.78128 11.8608 5.72952 11.7773 6.64798 11.7773C7.5386 11.7773 9.48685 11.8608 10.3218 11.5269C10.8506 11.3042 11.2959 10.8867 11.4908 10.3301Z" fill="#292F36"/>
</svg>
